# xmcd
#
# Track frame offsets:
#	150
#	25060
#	33267
#	52307
#	81375
#	101227
#	145097
#	168075
#	181300
#	192625
#	205725
#	222862
#
# Disc length: 3535 seconds
# Revision: 5
# Processed by: cddbd v1.5.2PL0 Copyright (c) Steve Scherf et al.
# Submitted via: dBpowerAMP V12.0
#
DISCID=ac0dcd0c
DTITLE=Muddy Waters, Dizzy Gillespie - Muddy Waters Blues Band Featuring Dizzy Gillespie
DYEAR=1996
DGENRE=Blues
TTITLE0=Nicest Blues
TTITLE1=Harmonica Rockin'
TTITLE2=Down Broke Down
TTITLE3=Baby Rock and Roll
TTITLE4=So Long
TTITLE5=Kansas City
TTITLE6=Luther's Blues
TTITLE7=Got My Mojo Working
TTITLE8=Portnoy's Blues
TTITLE9=(I'm Your) Hoochie Coochie Man
TTITLE10=Baby Please Don't Go
TTITLE11=Key Little Highway
EXTD=
EXTT0=
EXTT1=
EXTT2=
EXTT3=
EXTT4=
EXTT5=
EXTT6=
EXTT7=
EXTT8=
EXTT9=
EXTT10=
EXTT11=
PLAYORDER=
